<?xml version="1.0" encoding="UTF-8" standalone="no"?>
<!DOCTYPE svg PUBLIC "-//W3C//DTD SVG 20010904//EN"
              "http://www.w3.org/TR/2001/REC-SVG-20010904/DTD/svg10.dtd">

<svg xmlns="http://www.w3.org/2000/svg"
     width="0.555556in" height="1.11111in"
     viewBox="0 0 40 80">
  <path id="Selection #2"
        fill="none" stroke="black" stroke-width="1"
        d="M 12.36,35.00
           C 12.36,35.00 19.64,41.82 19.64,41.82
             19.64,41.82 22.73,39.18 22.73,39.18
             22.73,39.18 26.00,35.27 26.00,35.27
             26.00,35.27 28.27,36.09 28.27,36.09
             28.82,44.00 28.08,48.34 28.27,55.55
             28.71,58.99 28.33,62.84 29.00,66.09
             29.00,66.09 30.87,80.00 30.87,80.00
             30.87,80.00 26.64,79.91 26.64,79.91
             26.64,79.91 24.91,69.91 24.91,69.91
             24.91,69.91 21.27,46.00 21.27,46.00
             21.27,46.00 18.45,46.18 18.45,46.18
             18.45,46.18 15.09,69.73 15.09,69.73
             15.09,69.73 13.09,79.82 13.09,79.82
             13.09,79.82 9.13,80.00 9.13,80.00
             9.13,80.00 10.55,67.18 10.55,67.18
             11.22,63.93 11.33,59.44 11.76,56.00
             11.95,48.79 11.64,44.09 12.36,35.00 Z
           M 48.36,68.91" />
</svg>
