<?xml version="1.0" encoding="UTF-8" standalone="no"?>
<!DOCTYPE svg PUBLIC "-//W3C//DTD SVG 20010904//EN"
              "http://www.w3.org/TR/2001/REC-SVG-20010904/DTD/svg10.dtd">

<svg xmlns="http://www.w3.org/2000/svg"
     width="0.555556in" height="1.11111in"
     viewBox="0 0 40 80">
  <path id="Selection #1"
        fill="none" stroke="black" stroke-width="1"
        d="M 17.00,11.00
           C 17.00,11.00 23.00,11.00 23.00,11.00
             23.00,11.00 30.01,17.33 30.01,17.33
             33.07,21.41 35.50,32.78 35.66,38.00
             35.71,39.87 36.13,43.79 34.99,45.26
             33.98,46.58 32.46,46.66 31.00,47.00
             30.99,39.17 30.77,29.92 27.00,23.00
             26.74,27.03 27.45,31.26 25.55,35.00
             21.60,42.74 15.87,40.14 13.65,33.00
             12.78,30.20 13.20,26.10 13.00,23.00
             9.23,29.92 9.01,39.17 9.00,47.00
             7.54,46.66 6.02,46.58 5.01,45.26
             3.87,43.79 4.29,39.87 4.34,38.00
             4.50,32.78 6.93,21.41 9.99,17.33
             9.99,17.33 17.00,11.00 17.00,11.00 Z" />
</svg>
